<svg width="446" height="66" viewBox="0 0 446 66" fill="none" xmlns="http://www.w3.org/2000/svg">
<path d="M137.092 6.96881H114.397V23.5962H135.663V29.7194H114.397V52.2559H107.669V0.845633H137.092V6.96881Z" fill="#EAE6E1"/>
<path d="M158.905 13.0105V19.1337H156.109C151.094 19.1337 148.237 23.0969 148.237 30.2899V52.2458H141.722V19.6329L141.651 13.7339H148.095L148.237 19.205H148.378C149.311 16.1791 152.097 13.0105 157.112 13.0105H158.905Z" fill="#EAE6E1"/>
<path d="M167.973 34.4671C168.328 43.7589 171.914 48.0787 178.277 48.0787C183.292 48.0787 186.585 45.3483 187.294 40.8756H193.596C192.735 49.3013 186.575 53.1117 178.277 53.1117C167.537 53.1117 161.671 46.9886 161.671 32.9491C161.671 18.9095 168.115 12.8577 178.358 12.8577C188.601 12.8577 194.113 19.0522 194.113 33.0917V34.4569H167.983L167.973 34.4671ZM168.115 29.5767H187.73C187.152 21.6604 183.941 17.7684 178.348 17.7684C172.755 17.7684 168.895 21.5789 168.105 29.5767" fill="#EAE6E1"/>
<path d="M229.168 12.8679C233.89 12.8679 238.115 15.4557 239.401 18.339H239.472L239.614 13.7339H246.129L245.916 23.0969V51.4612C245.916 62.5461 238.257 66 229.452 66C221.215 66 216.494 63.3408 215.562 55.4143H222.005C222.654 59.5915 225.653 61.1707 229.807 61.1707C235.035 61.1707 239.472 58.8681 239.472 51.451V45.9799H239.401C237.76 49.4338 233.312 51.879 229.087 51.879C219.776 51.879 213.839 45.9086 213.839 32.3683C213.839 18.828 220.779 12.8577 229.158 12.8577M230.242 17.9824C224.153 17.9824 220.364 22.3023 220.364 32.3785C220.364 42.4548 224.163 46.7746 230.242 46.7746C236.321 46.7746 240.05 42.3835 240.05 32.3785C240.05 22.3736 236.332 17.9824 230.242 17.9824Z" fill="#EAE6E1"/>
<path d="M282.096 25.7561V52.2458H275.653V26.4693C275.653 20.5702 272.937 17.9722 268.489 17.9722C262.907 17.9722 259.108 22.0781 259.108 28.9145V52.2458H252.664V0.845633H259.108V19.0624H259.32C260.749 16.0364 264.335 12.8679 270.06 12.8679C277.223 12.8679 282.086 17.0451 282.086 25.7561" fill="#EAE6E1"/>
<path d="M302.755 18.9197H296.24V43.6162C296.24 46.0614 297.243 46.9987 299.249 46.9987H302.471V52.2559H297.892C292.735 52.2559 289.807 50.5239 289.807 44.2683V4.81907H296.25V13.7441H302.765V18.9299L302.755 18.9197Z" fill="#EAE6E1"/>
<path d="M362.653 0.845633L351.265 52.2458H343.251L337.456 24.452C336.453 19.7755 335.308 14.5897 334.447 8.97591H334.163C333.302 14.5897 332.157 19.7755 331.154 24.452L325.359 52.2458H317.344L305.956 0.845633H312.684L318.702 28.996C319.776 33.8864 320.708 38.5017 321.346 43.4634H321.701C322.42 38.4915 323.353 33.8864 324.345 28.996L330.07 0.845633H338.52L344.244 28.996C345.247 33.8864 346.179 38.5017 346.888 43.4634H347.243C347.891 38.4915 348.813 33.8864 349.887 28.996L355.906 0.845633H362.653Z" fill="#EAE6E1"/>
<path d="M366.949 4.73757V4.29948C366.949 1.9256 368.864 0 371.225 0C373.585 0 375.5 1.9256 375.5 4.29948V4.73757C375.5 7.11145 373.585 9.03704 371.225 9.03704C368.864 9.03704 366.949 7.11145 366.949 4.73757ZM367.972 13.7339H374.487V52.2559H367.972V13.7339Z" fill="#EAE6E1"/>
<path d="M380.617 40.9469H387.06C387.273 45.6946 390.07 48.2214 394.933 48.2214C399.796 48.2214 402.805 45.7762 402.805 41.9555C402.805 38.1349 400.515 37.1364 396.007 35.9852L392.856 35.1905C385.764 33.3871 381.326 31.2985 381.326 23.963C381.326 17.4119 387.192 12.878 394.791 12.878C402.39 12.878 408.104 16.1893 408.398 24.0343H401.883C401.741 19.8571 398.945 17.6971 394.649 17.6971C390.708 17.6971 387.638 19.7857 387.638 23.3822C387.638 26.9787 389.857 28.2013 394.011 29.2813L397.162 30.0759C404.102 31.808 409.117 33.3871 409.117 41.3748C409.117 48.2825 403.393 53.1117 394.872 53.1117C385.713 53.1117 380.84 49.3013 380.627 40.9469" fill="#EAE6E1"/>
<path d="M419.37 34.4671C419.725 43.7589 423.312 48.0787 429.674 48.0787C434.69 48.0787 437.982 45.3483 438.692 40.8756H444.993C444.132 49.3013 437.982 53.1117 429.674 53.1117C418.935 53.1117 413.069 46.9886 413.069 32.9491C413.069 18.9095 419.512 12.8577 429.745 12.8577C439.978 12.8577 445.5 19.0522 445.5 33.0917V34.4569H419.37V34.4671ZM419.512 29.5767H439.127C438.55 21.6604 435.338 17.7684 429.745 17.7684C424.153 17.7684 420.292 21.5789 419.512 29.5767Z" fill="#EAE6E1"/>
<path d="M200.02 4.72738V4.31986C200.02 2.12937 201.783 0.356598 203.961 0.356598C206.139 0.356598 207.902 2.12937 207.902 4.31986V4.72738C207.902 6.91787 206.139 8.69064 203.961 8.69064C201.783 8.69064 200.02 6.91787 200.02 4.72738ZM200.709 13.7339H207.223V52.2559H200.709V13.7339Z" fill="#EAE6E1"/>
<path d="M291.853 13.7339H285.369V18.9197H291.853V13.7339Z" fill="#EAE6E1"/>
<path d="M0 26.7036L33.7993 13.9478V1.21241L0 13.9682V26.7036Z" fill="#EAE6E1"/>
<path d="M33.7993 26.7036L67.5884 13.9478V1.21241L33.7993 13.9682V26.7036Z" fill="#EAE6E1"/>
<path d="M0 52.2152L33.7993 39.4492V26.7138L0 39.4798V52.2152Z" fill="#EAE6E1"/>
<path d="M33.7993 52.2152L67.5884 39.4492V26.7138L33.7993 39.4798V52.2152Z" fill="#EAE6E1"/>
</svg>
