<svg width="270" height="40" viewBox="0 0 270 40" fill="none" xmlns="http://www.w3.org/2000/svg">
<path d="M83.0859 4.22352H69.3314V14.3007H82.2201V18.0117H69.3314V31.6703H65.2541V0.512505H83.0859V4.22352Z" fill="white"/>
<path d="M96.3062 7.88515V11.5962H94.6115C91.5719 11.5962 89.8404 13.9981 89.8404 18.3575V31.6641H85.8921V11.8987L85.8491 8.32355H89.7544L89.8404 11.6394H89.9263C90.4912 9.80549 92.1798 7.88515 95.2193 7.88515H96.3062Z" fill="white"/>
<path d="M101.802 20.8892C102.017 26.5205 104.19 29.1386 108.047 29.1386C111.086 29.1386 113.082 27.4838 113.512 24.7731H117.331C116.809 29.8796 113.076 32.1889 108.047 32.1889C101.538 32.1889 97.9825 28.4779 97.9825 19.9691C97.9825 11.4603 101.888 7.79252 108.096 7.79252C114.304 7.79252 117.644 11.5468 117.644 20.0556V20.883H101.808L101.802 20.8892ZM101.888 17.9253H113.776C113.426 13.1275 111.479 10.7688 108.09 10.7688C104.7 10.7688 102.361 13.0781 101.882 17.9253" fill="white"/>
<path d="M138.89 7.7987C141.751 7.7987 144.312 9.36709 145.092 11.1145H145.135L145.221 8.32355H149.169L149.04 13.9981V31.1886C149.04 37.9067 144.398 40 139.062 40C134.07 40 131.208 38.3884 130.643 33.5844H134.549C134.942 36.1161 136.759 37.0732 139.277 37.0732C142.445 37.0732 145.135 35.6777 145.135 31.1824V27.8666H145.092C144.097 29.9599 141.401 31.4418 138.841 31.4418C133.198 31.4418 129.6 27.8234 129.6 19.6172C129.6 11.4109 133.806 7.79252 138.884 7.79252M139.541 10.8984C135.85 10.8984 133.554 13.5165 133.554 19.6233C133.554 25.7302 135.857 28.3482 139.541 28.3482C143.225 28.3482 145.485 25.6869 145.485 19.6233C145.485 13.5597 143.231 10.8984 139.541 10.8984Z" fill="white"/>
<path d="M170.967 15.6098V31.6641H167.062V16.042C167.062 12.4668 165.417 10.8922 162.721 10.8922C159.338 10.8922 157.035 13.3807 157.035 17.5239V31.6641H153.13V0.512505H157.035V11.5529H157.164C158.03 9.71905 160.203 7.7987 163.673 7.7987C168.014 7.7987 170.961 10.3304 170.961 15.6098" fill="white"/>
<path d="M183.488 11.4665H179.54V26.4341C179.54 27.916 180.147 28.4841 181.363 28.4841H183.316V31.6703H180.54C177.415 31.6703 175.64 30.6206 175.64 26.8293V2.92065H179.546V8.32973H183.494V11.4727L183.488 11.4665Z" fill="white"/>
<path d="M219.79 0.512505L212.888 31.6641H208.031L204.519 14.8194C203.911 11.9852 203.217 8.84223 202.695 5.43995H202.523C202.001 8.84223 201.307 11.9852 200.699 14.8194L197.187 31.6641H192.33L185.428 0.512505H189.505L193.153 17.5733C193.804 20.5372 194.369 23.3343 194.755 26.3414H194.97C195.406 23.3282 195.971 20.5372 196.573 17.5733L200.042 0.512505H205.163L208.633 17.5733C209.241 20.5372 209.806 23.3343 210.235 26.3414H210.45C210.843 23.3282 211.402 20.5372 212.053 17.5733L215.7 0.512505H219.79Z" fill="white"/>
<path d="M222.393 2.87125V2.60574C222.393 1.16703 223.554 0 224.985 0C226.415 0 227.576 1.16703 227.576 2.60574V2.87125C227.576 4.30997 226.415 5.47699 224.985 5.47699C223.554 5.47699 222.393 4.30997 222.393 2.87125ZM223.014 8.32355H226.962V31.6703H223.014V8.32355Z" fill="white"/>
<path d="M230.677 24.8163H234.582C234.711 27.6937 236.406 29.2251 239.353 29.2251C242.301 29.2251 244.124 27.7431 244.124 25.4276C244.124 23.1121 242.737 22.5069 240.004 21.8092L238.094 21.3276C233.796 20.2346 231.107 18.9688 231.107 14.523C231.107 10.5526 234.662 7.80488 239.267 7.80488C243.873 7.80488 247.336 9.81168 247.514 14.5662H243.566C243.48 12.0346 241.785 10.7255 239.181 10.7255C236.793 10.7255 234.932 11.9914 234.932 14.171C234.932 16.3507 236.277 17.0917 238.794 17.7462L240.704 18.2278C244.91 19.2776 247.95 20.2346 247.95 25.0756C247.95 29.2621 244.48 32.1889 239.316 32.1889C233.765 32.1889 230.812 29.8796 230.683 24.8163" fill="white"/>
<path d="M254.164 20.8892C254.379 26.5205 256.553 29.1386 260.409 29.1386C263.448 29.1386 265.444 27.4838 265.874 24.7731H269.693C269.171 29.8796 265.444 32.1889 260.409 32.1889C253.9 32.1889 250.345 28.4779 250.345 19.9691C250.345 11.4603 254.25 7.79252 260.452 7.79252C266.654 7.79252 270 11.5468 270 20.0556V20.883H254.164V20.8892ZM254.25 17.9253H266.138C265.788 13.1275 263.841 10.7688 260.452 10.7688C257.062 10.7688 254.723 13.0781 254.25 17.9253Z" fill="white"/>
<path d="M121.224 2.86508V2.61809C121.224 1.29052 122.292 0.21612 123.613 0.21612C124.933 0.21612 126.001 1.29052 126.001 2.61809V2.86508C126.001 4.19265 124.933 5.26706 123.613 5.26706C122.292 5.26706 121.224 4.19265 121.224 2.86508ZM121.642 8.32355H125.59V31.6703H121.642V8.32355Z" fill="white"/>
<path d="M176.881 8.32355H172.951V11.4665H176.881V8.32355Z" fill="white"/>
<path d="M0 16.184L20.4844 8.45323V0.734796L0 8.46558V16.184Z" fill="white"/>
<path d="M20.4844 16.184L40.9627 8.45323V0.734796L20.4844 8.46558V16.184Z" fill="white"/>
<path d="M0 31.6456L20.4844 23.9086V16.1902L0 23.9271V31.6456Z" fill="white"/>
<path d="M20.4844 31.6456L40.9627 23.9086V16.1902L20.4844 23.9271V31.6456Z" fill="white"/>
</svg>
