<svg width="459" height="358" viewBox="0 0 459 358" fill="none" xmlns="http://www.w3.org/2000/svg">
<rect x="122" y="38.5892" width="140" height="140" rx="70" transform="rotate(-16 122 38.5892)" fill="#9DBCBF"/>
<path d="M207.922 104.67C203.471 104.661 199.017 102.96 195.622 99.5692C192.332 96.2827 190.517 91.9177 190.508 87.2827C190.5 82.6478 192.298 78.2896 195.576 75.0156C200.902 69.6952 207.847 66.802 215.653 66.6519C221.512 66.5424 225.789 67.9977 225.97 68.0583L226.924 68.3898L227.204 69.3631C227.257 69.5481 228.5 73.9764 228.286 79.8892C227.999 87.8039 225.203 94.6284 220.206 99.6237C216.824 103.002 212.377 104.686 207.926 104.678M216.373 70.5124C216.123 70.5119 215.87 70.5115 215.612 70.519C208.779 70.683 202.965 73.1161 198.322 77.7543C195.775 80.2981 194.377 83.6842 194.384 87.2901C194.391 90.8959 195.801 94.2874 198.358 96.8408C203.635 102.113 212.207 102.129 217.461 96.877C226.374 87.9737 224.49 75.1104 223.719 71.4268C222.346 71.0744 219.669 70.5186 216.373 70.5124Z" fill="white"/>
<path d="M211.954 80.5164L188.61 103.835L191.355 106.577L214.699 83.2589L211.954 80.5164Z" fill="white"/>
<rect x="158" y="222.589" width="140" height="140" rx="70" transform="rotate(-16 158 222.589)" fill="#1A1A1A"/>
<path d="M244.925 275.352C238.102 275.339 232.539 269.782 232.526 262.965C232.513 256.149 238.055 250.613 244.879 250.626C251.703 250.639 257.266 256.196 257.279 263.012C257.291 269.829 251.749 275.365 244.925 275.352ZM244.886 254.541C240.222 254.532 236.436 258.313 236.445 262.973C236.454 267.632 240.254 271.428 244.918 271.437C249.583 271.446 253.368 267.664 253.36 263.005C253.351 258.345 249.551 254.549 244.886 254.541Z" fill="white"/>
<path d="M267.747 290.643L263.828 290.636C263.813 282.574 258.675 275.394 251.039 272.771L252.304 269.066C261.525 272.234 267.733 280.905 267.751 290.643" fill="white"/>
<path d="M226.08 290.564L222.161 290.557C222.143 280.823 228.319 272.175 237.524 269.042L238.802 272.752C231.176 275.346 226.065 282.507 226.08 290.569" fill="white"/>
<path d="M245.167 269.338C242.311 269.332 239.984 267.008 239.979 264.156L243.03 264.161C243.033 265.329 243.988 266.283 245.161 266.286C246.334 266.288 247.286 265.337 247.284 264.169L250.335 264.175C250.34 267.028 248.023 269.343 245.167 269.338Z" fill="white"/>
<rect y="171.589" width="140" height="140" rx="70" transform="rotate(-16 0 171.589)" fill="#EA564E"/>
<path d="M86.4284 239.497C75.4006 239.497 66.4283 230.525 66.4283 219.497C66.4283 208.469 75.4006 199.497 86.4284 199.497C97.4561 199.497 106.428 208.469 106.428 219.497C106.428 230.525 97.4561 239.497 86.4284 239.497ZM86.4284 202.936C77.2988 202.936 69.8671 210.364 69.8671 219.494C69.8671 228.623 77.2952 236.055 86.4284 236.055C95.5615 236.055 102.986 228.627 102.986 219.494C102.986 210.36 95.5579 202.936 86.4284 202.936Z" fill="white"/>
<path d="M86.4285 239.497C83.5866 239.497 81.0415 237.227 79.2578 233.106C77.6742 229.442 76.802 224.609 76.802 219.497C76.802 214.385 77.6742 209.553 79.2578 205.889C81.0415 201.767 83.5866 199.497 86.4285 199.497C89.2703 199.497 91.8154 201.767 93.5991 205.889C95.1827 209.553 96.0549 214.385 96.0549 219.497C96.0549 224.609 95.1827 229.442 93.5991 233.106C91.8154 237.227 89.2703 239.497 86.4285 239.497ZM86.4285 202.936C83.844 202.936 80.2444 209.234 80.2444 219.494C80.2444 229.753 83.8476 236.055 86.4285 236.055C89.0093 236.055 92.6125 229.756 92.6125 219.494C92.6125 209.231 89.0093 202.936 86.4285 202.936Z" fill="white"/>
<path d="M104.705 217.774H68.1478V221.213H104.705V217.774Z" fill="white"/>
<rect x="285" y="98.5892" width="140" height="140" rx="70" transform="rotate(-16 285 98.5892)" fill="#5444C7"/>
<path d="M373.809 126.803H369.731V135.774H373.809V126.803Z" fill="white"/>
<path d="M364.623 134.402H360.944V144.908H364.623V134.402Z" fill="white"/>
<path d="M371.73 140.272L353.751 146.685L354.987 150.151L372.966 143.738L371.73 140.272Z" fill="white"/>
<path d="M371.729 140.284L370.492 143.75L388.452 150.156L389.688 146.69L371.729 140.284Z" fill="white"/>
<path d="M361.893 159.36H358.213L353.743 146.654H357.426L361.893 159.36Z" fill="white"/>
<path d="M381.536 159.36H385.219L389.686 146.654H386.006L381.536 159.36Z" fill="white"/>
<path d="M382.593 134.402H378.913V144.908H382.593V134.402Z" fill="white"/>
<path d="M382.596 132.094H360.944V135.774H382.596V132.094Z" fill="white"/>
<path d="M371.547 166.803C367.441 166.803 364.104 163.463 364.104 159.36H367.437C367.437 161.626 369.28 163.47 371.547 163.47C373.813 163.47 375.656 161.626 375.656 159.36H378.989C378.989 163.466 375.649 166.803 371.547 166.803Z" fill="white"/>
<path d="M359.994 166.803C355.888 166.803 352.551 163.463 352.551 159.36H355.885C355.885 161.626 357.728 163.47 359.994 163.47C362.26 163.47 364.104 161.626 364.104 159.36H367.437C367.437 163.466 364.097 166.803 359.994 166.803Z" fill="white"/>
<path d="M383.102 166.803C378.996 166.803 375.659 163.463 375.659 159.36H378.993C378.993 161.626 380.836 163.47 383.102 163.47C385.368 163.47 387.212 161.626 387.212 159.36H390.545C390.545 163.466 387.205 166.803 383.102 166.803Z" fill="white"/>
</svg>
