<svg width="20" height="20" viewBox="0 0 20 20" fill="none" xmlns="http://www.w3.org/2000/svg">
<path d="M10 20C4.48615 20 0 15.5139 0 10C0 4.48615 4.48615 0 10 0C15.5139 0 20 4.48615 20 10C20 15.5139 15.5139 20 10 20ZM10 1.71939C5.43521 1.71939 1.71939 5.43342 1.71939 9.99821C1.71939 14.563 5.43343 18.2788 10 18.2788C14.5666 18.2788 18.2788 14.5648 18.2788 9.99821C18.2788 5.43164 14.5648 1.71939 10 1.71939Z" fill="white"/>
<path d="M10 20C8.57909 20 7.30653 18.8651 6.41466 16.8043C5.62288 14.9723 5.18678 12.5559 5.18678 10C5.18678 7.44415 5.62288 5.0277 6.41466 3.19571C7.30653 1.13494 8.57909 0 10 0C11.4209 0 12.6935 1.13494 13.5853 3.19571C14.3771 5.0277 14.8132 7.44415 14.8132 10C14.8132 12.5559 14.3771 14.9723 13.5853 16.8043C12.6935 18.8651 11.4209 20 10 20ZM10 1.71939C8.70778 1.71939 6.90796 4.86863 6.90796 9.99821C6.90796 15.1278 8.70957 18.2788 10 18.2788C11.2904 18.2788 13.092 15.1296 13.092 9.99821C13.092 4.86685 11.2904 1.71939 10 1.71939Z" fill="white"/>
<path d="M19.1385 9.13858H0.859707V10.858H19.1385V9.13858Z" fill="white"/>
</svg>
